<svg width="1065" height="116" viewBox="0 0 1065 116" fill="none" xmlns="http://www.w3.org/2000/svg">
<path d="M43.575 38.7C52.075 38.7 59.5 40.325 65.85 43.575C72.2 46.775 77.125 51.275 80.625 57.075C84.175 62.875 85.95 69.625 85.95 77.325C85.95 84.425 84.1 90.85 80.4 96.6C76.7 102.35 71.575 106.925 65.025 110.325C58.525 113.675 50.975 115.35 42.375 115.35C33.875 115.35 26.45 113.725 20.1 110.475C13.75 107.175 8.8 102.625 5.25 96.825C1.75 91.025 5.58794e-08 84.325 5.58794e-08 76.725C5.58794e-08 69.475 1.85 63 5.55 57.3C9.25 51.55 14.35 47.025 20.85 43.725C27.4 40.375 34.975 38.7 43.575 38.7ZM49.05 104.475C50.95 104.025 52.4 102.7 53.4 100.5C54.4 98.3 54.85 95.1 54.75 90.9C54.65 86.7 53.9 81.375 52.5 74.925C51.2 68.725 49.725 63.675 48.075 59.775C46.475 55.875 44.725 53.075 42.825 51.375C40.925 49.675 38.95 49.075 36.9 49.575C35 50.025 33.55 51.35 32.55 53.55C31.55 55.75 31.1 58.95 31.2 63.15C31.35 67.3 32.1 72.625 33.45 79.125C34.75 85.275 36.225 90.325 37.875 94.275C39.525 98.175 41.275 100.975 43.125 102.675C45.025 104.325 47 104.925 49.05 104.475ZM149.032 97.875V96.9H147.907V62.25C147.907 60.65 147.682 59.525 147.232 58.875C146.832 58.175 146.207 57.7 145.357 57.45L143.707 56.925C142.657 56.575 141.882 56.075 141.382 55.425C140.932 54.775 140.707 53.95 140.707 52.95C140.707 51.75 141.032 50.8 141.682 50.1C142.332 49.4 143.557 48.7 145.357 48L162.007 41.55C164.557 40.55 166.607 39.825 168.157 39.375C169.757 38.925 171.307 38.7 172.807 38.7C175.057 38.7 176.757 39.35 177.907 40.65C179.107 41.9 179.707 43.5 179.707 45.45V97.5C179.707 99.5 179.857 100.925 180.157 101.775C180.457 102.575 180.982 103.15 181.732 103.5L183.382 104.25C184.532 104.75 185.357 105.375 185.857 106.125C186.357 106.875 186.607 107.75 186.607 108.75C186.607 110.15 186.157 111.25 185.257 112.05C184.357 112.85 182.907 113.25 180.907 113.25H162.532C158.982 113.25 155.832 111.725 153.082 108.675C150.382 105.625 149.032 102.025 149.032 97.875ZM99.457 91.35V62.25C99.457 60.65 99.232 59.525 98.782 58.875C98.382 58.175 97.757 57.7 96.907 57.45L95.257 56.925C94.207 56.575 93.432 56.075 92.932 55.425C92.482 54.775 92.257 53.95 92.257 52.95C92.257 51.75 92.582 50.8 93.232 50.1C93.882 49.4 95.107 48.7 96.907 48L113.557 41.55C116.257 40.5 118.382 39.775 119.932 39.375C121.482 38.925 122.857 38.7 124.057 38.7C126.457 38.7 128.257 39.35 129.457 40.65C130.657 41.9 131.257 43.5 131.257 45.45V86.85C131.257 90.05 131.982 92.45 133.432 94.05C134.932 95.65 137.007 96.45 139.657 96.45C141.307 96.45 143.032 96.125 144.832 95.475C146.632 94.825 148.232 93.875 149.632 92.625L152.257 90.3L156.757 95.1L154.507 97.2C147.457 103.95 141.332 108.675 136.132 111.375C130.932 114.025 126.157 115.35 121.807 115.35C115.157 115.35 109.757 113.125 105.607 108.675C101.507 104.225 99.457 98.45 99.457 91.35ZM231.053 72.3C231.053 64.65 232.053 58.35 234.053 53.4C236.053 48.4 238.703 44.7 242.003 42.3C245.353 39.9 249.003 38.7 252.953 38.7C258.253 38.7 262.303 40.3 265.103 43.5C267.953 46.65 269.378 51.425 269.378 57.825C269.378 64.375 268.053 69.2 265.403 72.3C262.803 75.4 259.403 76.95 255.203 76.95C250.953 76.95 247.753 75.875 245.603 73.725C243.503 71.525 242.453 68.5 242.453 64.65V61.5C242.403 60.2 242.103 59.225 241.553 58.575C241.053 57.875 240.253 57.525 239.153 57.525C238.153 57.525 237.253 57.975 236.453 58.875C235.703 59.725 235.103 61.15 234.653 63.15C234.203 65.1 233.978 67.75 233.978 71.1L231.053 72.3ZM231.878 45.45L233.978 61.125V97.5C233.978 99.25 234.228 100.5 234.728 101.25C235.228 101.95 236.378 102.475 238.178 102.825L243.878 103.95C245.378 104.25 246.478 104.775 247.178 105.525C247.878 106.275 248.228 107.325 248.228 108.675C248.228 110.125 247.728 111.25 246.728 112.05C245.778 112.85 244.353 113.25 242.453 113.25H200.978C198.978 113.25 197.528 112.85 196.628 112.05C195.728 111.25 195.278 110.15 195.278 108.75C195.278 107.75 195.528 106.875 196.028 106.125C196.528 105.375 197.353 104.75 198.503 104.25L200.153 103.5C200.903 103.15 201.428 102.575 201.728 101.775C202.028 100.925 202.178 99.5 202.178 97.5V62.55C202.178 60.95 201.953 59.825 201.503 59.175C201.103 58.475 200.478 58 199.628 57.75L197.978 57.225C196.928 56.875 196.153 56.375 195.653 55.725C195.203 55.075 194.978 54.25 194.978 53.25C194.978 52.05 195.303 51.1 195.953 50.4C196.653 49.65 197.878 48.95 199.628 48.3L215.753 42C219.303 40.6 221.853 39.7 223.403 39.3C224.953 38.9 226.153 38.7 227.003 38.7C228.403 38.7 229.478 39.225 230.228 40.275C230.978 41.275 231.528 43 231.878 45.45ZM380.938 61.875C380.938 65.675 379.488 68.9 376.588 71.55C373.738 74.2 369.913 75.525 365.113 75.525C360.463 75.525 356.963 74.3 354.613 71.85C352.313 69.35 351.163 66.175 351.163 62.325V59.925C351.163 56.675 350.488 54.125 349.138 52.275C347.788 50.375 346.013 49.425 343.813 49.425C342.063 49.425 340.413 50.075 338.863 51.375C337.363 52.675 336.138 54.675 335.188 57.375C334.238 60.025 333.763 63.4 333.763 67.5C333.763 73.3 334.738 78.15 336.688 82.05C338.688 85.95 341.413 88.9 344.863 90.9C348.313 92.85 352.238 93.825 356.638 93.825C359.838 93.825 362.713 93.45 365.263 92.7C367.863 91.9 370.438 90.375 372.988 88.125C374.438 86.825 375.538 85.95 376.288 85.5C377.038 85.05 377.763 84.825 378.463 84.825C379.463 84.825 380.188 85.325 380.638 86.325C381.138 87.325 381.388 88.55 381.388 90C381.388 94.45 379.888 98.625 376.888 102.525C373.938 106.375 369.813 109.475 364.513 111.825C359.213 114.175 353.063 115.35 346.063 115.35C338.413 115.35 331.538 113.85 325.438 110.85C319.388 107.8 314.588 103.575 311.038 98.175C307.488 92.725 305.713 86.375 305.713 79.125C305.713 71.375 307.413 64.45 310.813 58.35C314.263 52.25 319.113 47.45 325.363 43.95C331.663 40.45 339.088 38.7 347.638 38.7C354.488 38.7 360.388 39.75 365.338 41.85C370.338 43.9 374.188 46.675 376.888 50.175C379.588 53.675 380.938 57.575 380.938 61.875ZM432.93 38.7C441.43 38.7 448.855 40.325 455.205 43.575C461.555 46.775 466.48 51.275 469.98 57.075C473.53 62.875 475.305 69.625 475.305 77.325C475.305 84.425 473.455 90.85 469.755 96.6C466.055 102.35 460.93 106.925 454.38 110.325C447.88 113.675 440.33 115.35 431.73 115.35C423.23 115.35 415.805 113.725 409.455 110.475C403.105 107.175 398.155 102.625 394.605 96.825C391.105 91.025 389.355 84.325 389.355 76.725C389.355 69.475 391.205 63 394.905 57.3C398.605 51.55 403.705 47.025 410.205 43.725C416.755 40.375 424.33 38.7 432.93 38.7ZM438.405 104.475C440.305 104.025 441.755 102.7 442.755 100.5C443.755 98.3 444.205 95.1 444.105 90.9C444.005 86.7 443.255 81.375 441.855 74.925C440.555 68.725 439.08 63.675 437.43 59.775C435.83 55.875 434.08 53.075 432.18 51.375C430.28 49.675 428.305 49.075 426.255 49.575C424.355 50.025 422.905 51.35 421.905 53.55C420.905 55.75 420.455 58.95 420.555 63.15C420.705 67.3 421.455 72.625 422.805 79.125C424.105 85.275 425.58 90.325 427.23 94.275C428.88 98.175 430.63 100.975 432.48 102.675C434.38 104.325 436.355 104.925 438.405 104.475ZM522.113 6.74999V97.5C522.113 99.5 522.263 100.925 522.563 101.775C522.863 102.575 523.388 103.15 524.138 103.5L525.788 104.25C526.938 104.75 527.763 105.375 528.263 106.125C528.763 106.875 529.013 107.75 529.013 108.75C529.013 110.15 528.563 111.25 527.663 112.05C526.763 112.85 525.313 113.25 523.313 113.25H489.113C487.113 113.25 485.663 112.85 484.763 112.05C483.863 111.25 483.413 110.15 483.413 108.75C483.413 107.75 483.663 106.875 484.163 106.125C484.663 105.375 485.488 104.75 486.638 104.25L488.288 103.5C489.038 103.15 489.563 102.575 489.863 101.775C490.163 100.925 490.313 99.5 490.313 97.5V23.55C490.313 21.95 490.088 20.825 489.638 20.175C489.238 19.475 488.613 19 487.763 18.75L486.113 18.225C485.063 17.875 484.288 17.375 483.788 16.725C483.338 16.075 483.113 15.25 483.113 14.25C483.113 13.05 483.438 12.1 484.088 11.4C484.738 10.7 485.963 9.99999 487.763 9.3L504.413 2.84999C507.113 1.8 509.238 1.075 510.788 0.674996C512.338 0.224993 513.713 -8.22544e-06 514.913 -8.22544e-06C517.313 -8.22544e-06 519.113 0.649992 520.313 1.94999C521.513 3.19999 522.113 4.79999 522.113 6.74999ZM574.847 6.74999V97.5C574.847 99.5 574.997 100.925 575.297 101.775C575.597 102.575 576.122 103.15 576.872 103.5L578.522 104.25C579.672 104.75 580.497 105.375 580.997 106.125C581.497 106.875 581.747 107.75 581.747 108.75C581.747 110.15 581.297 111.25 580.397 112.05C579.497 112.85 578.047 113.25 576.047 113.25H541.847C539.847 113.25 538.397 112.85 537.497 112.05C536.597 111.25 536.147 110.15 536.147 108.75C536.147 107.75 536.397 106.875 536.897 106.125C537.397 105.375 538.222 104.75 539.372 104.25L541.022 103.5C541.772 103.15 542.297 102.575 542.597 101.775C542.897 100.925 543.047 99.5 543.047 97.5V23.55C543.047 21.95 542.822 20.825 542.372 20.175C541.972 19.475 541.347 19 540.497 18.75L538.847 18.225C537.797 17.875 537.022 17.375 536.522 16.725C536.072 16.075 535.847 15.25 535.847 14.25C535.847 13.05 536.172 12.1 536.822 11.4C537.472 10.7 538.697 9.99999 540.497 9.3L557.147 2.84999C559.847 1.8 561.972 1.075 563.522 0.674996C565.072 0.224993 566.447 -8.22544e-06 567.647 -8.22544e-06C570.047 -8.22544e-06 571.847 0.649992 573.047 1.94999C574.247 3.19999 574.847 4.79999 574.847 6.74999ZM664.856 67.65C664.856 71.15 663.906 73.875 662.006 75.825C660.106 77.725 657.381 78.675 653.831 78.675H609.356V70.875H629.381C632.131 70.875 633.506 69.575 633.506 66.975C633.506 60.675 632.781 56.175 631.331 53.475C629.881 50.775 627.956 49.425 625.556 49.425C623.806 49.425 622.231 50.075 620.831 51.375C619.431 52.675 618.306 54.675 617.456 57.375C616.656 60.025 616.256 63.4 616.256 67.5C616.256 76.6 618.306 83.275 622.406 87.525C626.506 91.725 632.106 93.825 639.206 93.825C642.506 93.825 645.506 93.45 648.206 92.7C650.906 91.95 653.556 90.425 656.156 88.125C657.606 86.825 658.706 85.95 659.456 85.5C660.206 85.05 660.931 84.825 661.631 84.825C662.631 84.825 663.356 85.325 663.806 86.325C664.306 87.325 664.556 88.55 664.556 90C664.556 94.45 663.031 98.625 659.981 102.525C656.981 106.375 652.781 109.475 647.381 111.825C642.031 114.175 635.781 115.35 628.631 115.35C620.981 115.35 614.106 113.85 608.006 110.85C601.906 107.8 597.081 103.575 593.531 98.175C589.981 92.725 588.206 86.375 588.206 79.125C588.206 70.975 589.831 63.875 593.081 57.825C596.331 51.775 601.056 47.075 607.256 43.725C613.506 40.375 621.031 38.7 629.831 38.7C637.581 38.7 644.056 39.95 649.256 42.45C654.456 44.95 658.356 48.375 660.956 52.725C663.556 57.075 664.856 62.05 664.856 67.65ZM747.442 61.875C747.442 65.675 745.992 68.9 743.092 71.55C740.242 74.2 736.417 75.525 731.617 75.525C726.967 75.525 723.467 74.3 721.117 71.85C718.817 69.35 717.667 66.175 717.667 62.325V59.925C717.667 56.675 716.992 54.125 715.642 52.275C714.292 50.375 712.517 49.425 710.317 49.425C708.567 49.425 706.917 50.075 705.367 51.375C703.867 52.675 702.642 54.675 701.692 57.375C700.742 60.025 700.267 63.4 700.267 67.5C700.267 73.3 701.242 78.15 703.192 82.05C705.192 85.95 707.917 88.9 711.367 90.9C714.817 92.85 718.742 93.825 723.142 93.825C726.342 93.825 729.217 93.45 731.767 92.7C734.367 91.9 736.942 90.375 739.492 88.125C740.942 86.825 742.042 85.95 742.792 85.5C743.542 85.05 744.267 84.825 744.967 84.825C745.967 84.825 746.692 85.325 747.142 86.325C747.642 87.325 747.892 88.55 747.892 90C747.892 94.45 746.392 98.625 743.392 102.525C740.442 106.375 736.317 109.475 731.017 111.825C725.717 114.175 719.567 115.35 712.567 115.35C704.917 115.35 698.042 113.85 691.942 110.85C685.892 107.8 681.092 103.575 677.542 98.175C673.992 92.725 672.217 86.375 672.217 79.125C672.217 71.375 673.917 64.45 677.317 58.35C680.767 52.25 685.617 47.45 691.867 43.95C698.167 40.45 705.592 38.7 714.142 38.7C720.992 38.7 726.892 39.75 731.842 41.85C736.842 43.9 740.692 46.675 743.392 50.175C746.092 53.675 747.442 57.575 747.442 61.875ZM759.309 50.7L756.909 49.725C755.809 49.275 754.984 48.7 754.434 48C753.884 47.3 753.609 46.45 753.609 45.45C753.609 44 754.084 42.9 755.034 42.15C756.034 41.35 757.309 40.95 758.859 40.95H762.984C763.934 40.95 764.809 40.7 765.609 40.2C766.459 39.7 767.534 38.8 768.834 37.5L781.059 25.125C782.709 23.475 784.234 22.25 785.634 21.45C787.084 20.65 788.459 20.25 789.759 20.25C791.209 20.25 792.334 20.725 793.134 21.675C793.984 22.625 794.409 24 794.409 25.8V85.95C794.409 89.6 795.034 92.375 796.284 94.275C797.534 96.175 799.334 97.125 801.684 97.125C803.584 97.125 805.034 96.65 806.034 95.7C807.084 94.75 807.909 93.675 808.509 92.475C809.159 91.225 809.834 90.125 810.534 89.175C811.234 88.225 812.184 87.75 813.384 87.75C814.384 87.75 815.184 88.1 815.784 88.8C816.384 89.5 816.684 90.7 816.684 92.4C816.684 96.65 815.459 100.525 813.009 104.025C810.559 107.475 807.184 110.225 802.884 112.275C798.584 114.325 793.684 115.35 788.184 115.35C780.034 115.35 773.734 113.4 769.284 109.5C764.834 105.55 762.609 99.6 762.609 91.65V55.575C762.609 54.125 762.334 53.075 761.784 52.425C761.284 51.775 760.459 51.2 759.309 50.7ZM783.459 51.6V40.95H810.834C812.384 40.95 813.609 41.3 814.509 42C815.459 42.65 815.934 43.6 815.934 44.85C815.934 46.75 815.009 48.35 813.159 49.65C811.309 50.95 808.259 51.6 804.009 51.6H783.459ZM861.517 45.45V97.5C861.517 99.5 861.667 100.925 861.967 101.775C862.267 102.575 862.792 103.15 863.542 103.5L865.192 104.25C866.342 104.75 867.167 105.375 867.667 106.125C868.167 106.875 868.417 107.75 868.417 108.75C868.417 110.15 867.967 111.25 867.067 112.05C866.167 112.85 864.717 113.25 862.717 113.25H828.517C826.517 113.25 825.067 112.85 824.167 112.05C823.267 111.25 822.817 110.15 822.817 108.75C822.817 107.75 823.067 106.875 823.567 106.125C824.067 105.375 824.892 104.75 826.042 104.25L827.692 103.5C828.442 103.15 828.967 102.575 829.267 101.775C829.567 100.925 829.717 99.5 829.717 97.5V62.25C829.717 60.65 829.492 59.525 829.042 58.875C828.642 58.175 828.017 57.7 827.167 57.45L825.517 56.925C824.467 56.575 823.692 56.075 823.192 55.425C822.742 54.775 822.517 53.95 822.517 52.95C822.517 51.75 822.842 50.8 823.492 50.1C824.142 49.4 825.367 48.7 827.167 48L843.817 41.55C846.517 40.5 848.642 39.775 850.192 39.375C851.742 38.925 853.117 38.7 854.317 38.7C856.717 38.7 858.517 39.35 859.717 40.65C860.917 41.9 861.517 43.5 861.517 45.45ZM843.967 32.1C838.367 32.1 833.942 30.8 830.692 28.2C827.442 25.6 825.817 22.05 825.817 17.55C825.817 13.1 827.442 9.6 830.692 7.05C833.942 4.49999 838.367 3.22499 843.967 3.22499C849.567 3.22499 853.992 4.49999 857.242 7.05C860.492 9.6 862.117 13.1 862.117 17.55C862.117 22.05 860.492 25.6 857.242 28.2C853.992 30.8 849.567 32.1 843.967 32.1ZM918.526 38.7C927.026 38.7 934.451 40.325 940.801 43.575C947.151 46.775 952.076 51.275 955.576 57.075C959.126 62.875 960.901 69.625 960.901 77.325C960.901 84.425 959.051 90.85 955.351 96.6C951.651 102.35 946.526 106.925 939.976 110.325C933.476 113.675 925.926 115.35 917.326 115.35C908.826 115.35 901.401 113.725 895.051 110.475C888.701 107.175 883.751 102.625 880.201 96.825C876.701 91.025 874.951 84.325 874.951 76.725C874.951 69.475 876.801 63 880.501 57.3C884.201 51.55 889.301 47.025 895.801 43.725C902.351 40.375 909.926 38.7 918.526 38.7ZM924.001 104.475C925.901 104.025 927.351 102.7 928.351 100.5C929.351 98.3 929.801 95.1 929.701 90.9C929.601 86.7 928.851 81.375 927.451 74.925C926.151 68.725 924.676 63.675 923.026 59.775C921.426 55.875 919.676 53.075 917.776 51.375C915.876 49.675 913.901 49.075 911.851 49.575C909.951 50.025 908.501 51.35 907.501 53.55C906.501 55.75 906.051 58.95 906.151 63.15C906.301 67.3 907.051 72.625 908.401 79.125C909.701 85.275 911.176 90.325 912.826 94.275C914.476 98.175 916.226 100.975 918.076 102.675C919.976 104.325 921.951 104.925 924.001 104.475ZM1007.71 45.45V97.5C1007.71 99.5 1007.86 100.9 1008.16 101.7C1008.46 102.5 1008.98 103.1 1009.73 103.5L1011.23 104.325C1012.88 105.275 1013.71 106.65 1013.71 108.45C1013.71 111.65 1011.78 113.25 1007.93 113.25H974.708C972.708 113.25 971.258 112.85 970.358 112.05C969.458 111.25 969.008 110.15 969.008 108.75C969.008 107.75 969.258 106.875 969.758 106.125C970.258 105.375 971.083 104.75 972.233 104.25L973.883 103.5C974.633 103.15 975.158 102.575 975.458 101.775C975.758 100.925 975.908 99.5 975.908 97.5V62.25C975.908 60.65 975.683 59.525 975.233 58.875C974.833 58.175 974.208 57.7 973.358 57.45L971.708 56.925C970.658 56.575 969.883 56.075 969.383 55.425C968.933 54.775 968.708 53.95 968.708 52.95C968.708 51.75 969.033 50.8 969.683 50.1C970.333 49.4 971.558 48.7 973.358 48L990.008 41.55C992.558 40.55 994.608 39.825 996.158 39.375C997.758 38.925 999.308 38.7 1000.81 38.7C1003.06 38.7 1004.76 39.35 1005.91 40.65C1007.11 41.9 1007.71 43.5 1007.71 45.45ZM1005.01 63.75L1000.51 58.95L1002.76 56.85C1009.81 50.1 1015.93 45.4 1021.13 42.75C1026.33 40.05 1031.11 38.7 1035.46 38.7C1042.16 38.7 1047.56 40.925 1051.66 45.375C1055.76 49.775 1057.81 55.55 1057.81 62.7V97.5C1057.81 99.5 1057.96 100.925 1058.26 101.775C1058.56 102.575 1059.08 103.15 1059.83 103.5L1061.48 104.25C1062.63 104.75 1063.46 105.375 1063.96 106.125C1064.46 106.875 1064.71 107.75 1064.71 108.75C1064.71 110.15 1064.26 111.25 1063.36 112.05C1062.46 112.85 1061.01 113.25 1059.01 113.25H1025.78C1021.93 113.25 1020.01 111.65 1020.01 108.45C1020.01 106.65 1020.83 105.275 1022.48 104.325L1023.98 103.5C1024.73 103.1 1025.26 102.5 1025.56 101.7C1025.86 100.9 1026.01 99.5 1026.01 97.5V67.2C1026.01 64 1025.26 61.6 1023.76 60C1022.31 58.4 1020.26 57.6 1017.61 57.6C1015.96 57.6 1014.23 57.925 1012.43 58.575C1010.63 59.225 1009.03 60.175 1007.63 61.425L1005.01 63.75Z" fill="#83888F"/>
</svg>
